<svg width="512" height="512" viewBox="0 0 512 512" fill="none" xmlns="http://www.w3.org/2000/svg">
<path d="M255.955 0L130.505 217.287H108.162V255.985L33.8601 384.683H284.831V407.439L329.523 384.683H478.14L351.838 166.011V143.255L329.501 127.339L255.955 0ZM256 77.392L284.83 127.319V154.637L307.175 166.015L411.102 345.988H351.869V323.232L307.177 345.988H100.898L130.513 294.702H152.858V256.006L256 77.392Z" fill="#33A6F2"/>
<path d="M351.869 345.987H307.177L411.102 166.013H351.835L329.5 127.34C329.534 127.317 478.139 127.317 478.139 127.317L351.869 345.987Z" fill="#75C8FF"/>
<path d="M256 434.608L284.831 384.683H329.523L256 512L130.526 294.707L152.872 256.011L256 434.608Z" fill="#75C8FF"/>
<path d="M284.831 127.317L307.177 166.013H100.898L130.514 217.293L108.169 255.989L33.8601 127.317H284.831Z" fill="#75C8FF"/>
</svg>
